<svg xmlns="http://www.w3.org/2000/svg" xmlns:xlink="http://www.w3.org/1999/xlink" xmlns:lucid="lucid" width="2800" height="1615.33"><g transform="translate(-100 -440)" lucid:page-tab-id="0_0"><path d="M120 720h320v180H120z" stroke="#000" stroke-width="3" fill="#fff"/><use xlink:href="#a" transform="matrix(1,0,0,1,125,725) translate(90.70555555555555 92.24444444444444)"/><path d="M540 720h320v180H540z" stroke="#000" stroke-width="3" fill="#fff"/><use xlink:href="#b" transform="matrix(1,0,0,1,545,725) translate(11.268209876543239 92.24444444444444)"/><use xlink:href="#c" transform="matrix(1,0,0,1,545,725) translate(210.3898148148148 92.24444444444444)"/><path d="M960 720h320v180H960z" stroke="#000" stroke-width="3" fill="#fff"/><use xlink:href="#d" transform="matrix(1,0,0,1,965,725) translate(73.60061728395061 92.24444444444444)"/><path d="M1369.48 720h320v180h-320z" stroke="#000" stroke-width="3" fill="#fff"/><use xlink:href="#e" transform="matrix(1,0,0,1,1374.4833333333336,725) translate(97.14506172839506 92.24444444444444)"/><path d="M1760 720h320v180h-320z" stroke="#000" stroke-width="3" fill="#fff"/><use xlink:href="#f" transform="matrix(1,0,0,1,1765,725) translate(115.75925925925927 92.24444444444444)"/><path d="M2160 720h320v180h-320z" stroke="#000" stroke-width="3" fill="#fff"/><use xlink:href="#g" transform="matrix(1,0,0,1,2165,725) translate(121.84660493827161 92.24444444444444)"/><path d="M2560 720h320v180h-320z" stroke="#000" stroke-width="3" fill="#fff"/><use xlink:href="#h" transform="matrix(1,0,0,1,2565,725) translate(73.70123456790124 92.24444444444444)"/><use xlink:href="#i" transform="matrix(1,0,0,1,2565,725) translate(176.23024691358023 92.24444444444444)"/><path d="M760 568c0 6.63-26.86 12-60 12s-60-5.37-60-12v-96c0-6.63 26.86-12 60-12s60 5.37 60 12z" stroke="#c92d39" stroke-width="3" fill="#fff"/><path d="M760 472c0 6.63-26.86 12-60 12s-60-5.37-60-12" stroke="#c92d39" stroke-width="3" fill="none"/><use xlink:href="#j" transform="matrix(1,0,0,1,645,489) translate(8.81666666666667 50.24444444444444)"/><path d="M1180 568c0 6.63-26.86 12-60 12s-60-5.37-60-12v-96c0-6.63 26.86-12 60-12s60 5.37 60 12z" stroke="#c92d39" stroke-width="3" fill="#fff"/><path d="M1180 472c0 6.63-26.86 12-60 12s-60-5.37-60-12" stroke="#c92d39" stroke-width="3" fill="none"/><use xlink:href="#j" transform="matrix(1,0,0,1,1065,489) translate(8.81666666666667 50.24444444444444)"/><path d="M2380 568c0 6.63-26.86 12-60 12s-60-5.37-60-12v-96c0-6.63 26.86-12 60-12s60 5.37 60 12z" stroke="#c92d39" stroke-width="3" fill="#fff"/><path d="M2380 472c0 6.63-26.86 12-60 12s-60-5.37-60-12" stroke="#c92d39" stroke-width="3" fill="none"/><use xlink:href="#j" transform="matrix(1,0,0,1,2265,489) translate(8.81666666666667 50.24444444444444)"/><path d="M2480 1514.2c0 5.78-434.28 10.47-970 10.47s-970-4.7-970-10.47v-83.73c0-5.78 434.28-10.47 970-10.47s970 4.7 970 10.47z" stroke="#7ab648" stroke-width="3" fill="#fff"/><path d="M2480 1430.47c0 5.78-434.28 10.46-970 10.46s-970-4.68-970-10.46" stroke="#7ab648" stroke-width="3" fill="none"/><use xlink:href="#k" transform="matrix(1,0,0,1,545,1445.9333333333257) translate(893.612037037037 44.24444444444444)"/><path d="M280 718.5l341.13-188.88" stroke="#000" stroke-width="3" fill="none"/><path d="M280.73 719.8l-.34.2h-3l-.75-1.36 2.62-1.45zM624.02 533.32l-4.5-8.1 14.73-2.87z"/><path d="M623.7 535.85l-6.48-11.72L638.5 520zm-1.86-9.56l2.5 4.48 5.67-6.08z"/><path d="M700 581.5v117.15" stroke="#000" stroke-width="3" fill="none"/><path d="M700 580l1.5-.05v1.55h-3v-1.56zM700 713.65l-4.64-14.27h9.28z"/><path d="M700 718.5l-6.7-20.62h13.4zm-2.57-17.62l2.57 7.9 2.57-7.9z"/><path d="M700 901.5v502.3" stroke="#000" stroke-width="3" fill="none"/><path d="M701.5 901.5h-3V900h3zM700 1418.8l-4.64-14.27h9.28z"/><path d="M700 1423.65l-6.7-20.62h13.4zm-2.57-17.62l2.57 7.9 2.57-7.9z"/><path d="M580 1020h240v60H580z" stroke="#000" stroke-opacity="0" fill="#fff" fill-opacity="0"/><use xlink:href="#l" transform="matrix(1,0,0,1,585,1025) translate(14.483333333333334 32.24444444444444)"/><use xlink:href="#m" transform="matrix(1,0,0,1,585,1025) translate(104.83765432098765 32.24444444444444)"/><use xlink:href="#n" transform="matrix(1,0,0,1,585,1025) translate(139.04753086419754 32.24444444444444)"/><path d="M2450 1160c16.57 0 30 13.43 30 30v44.67c0 16.57-13.43 30-30 30H570c-16.57 0-30-13.43-30-30V1190c0-16.57 13.43-30 30-30z" stroke="#0c7cba" stroke-width="3" fill="#fff"/><path d="M1390 1182.33h240v60h-240z" stroke="#000" stroke-opacity="0" fill="#fff" fill-opacity="0"/><use xlink:href="#o" transform="matrix(1,0,0,1,1395,1187.333333333314) translate(37.67561728395063 32.24444444444444)"/><path d="M1073.27 718.5V596.9" stroke="#000" stroke-width="3" fill="none"/><path d="M1074.77 720h-3v-1.5h3zM1077.9 596.15h-9.27l4.64-14.26z"/><path d="M1079.97 597.65h-13.4l6.7-20.62zm-9.27-3h5.14l-2.57-7.9z"/><path d="M1169.1 576.4v122.25" stroke="#000" stroke-width="3" fill="none"/><path d="M1170.6 576.4h-3v-1.13l3-.85zM1169.1 713.65l-4.64-14.27h9.27z"/><path d="M1169.1 718.5l-6.7-20.62h13.4zm-2.57-17.62l2.57 7.9 2.57-7.9z"/><path d="M1070.96 1421.3V921.34" stroke="#000" stroke-width="3" fill="none"/><path d="M1072.46 1422.78l-3 .02v-1.5h3zM1075.6 920.62h-9.27l4.63-14.27z"/><path d="M1077.66 922.12h-13.4l6.7-20.62zm-9.27-3h5.13l-2.57-7.9z"/><path d="M1187.18 901.5v237.15" stroke="#000" stroke-width="3" fill="none"/><path d="M1188.68 901.5h-3V900h3z"/><path d="M1187.18 1153.65l-4.63-14.27h9.27z" stroke="#000" stroke-width="3"/><path d="M960 940h240v60H960z" stroke="#000" stroke-opacity="0" fill="#fff" fill-opacity="0"/><use xlink:href="#p" transform="matrix(1,0,0,1,965,945) translate(32.594444444444434 32.24444444444444)"/><use xlink:href="#n" transform="matrix(1,0,0,1,965,945) translate(120.93641975308643 32.24444444444444)"/><path d="M1080 1060h260v65.37h-260z" stroke="#000" stroke-opacity="0" fill="#fff" fill-opacity="0"/><use xlink:href="#q" transform="matrix(1,0,0,1,1085,1065) translate(10.296296296296305 35.24444444444444)"/><use xlink:href="#r" transform="matrix(1,0,0,1,1085,1065) translate(163.23456790123456 35.24444444444444)"/><path d="M1380 460h320v100h-320z" stroke="#000" stroke-width="3" fill="#fff"/><use xlink:href="#s" transform="matrix(1,0,0,1,1385,465) translate(114.8537037037037 52.24444444444444)"/><path d="M1529.48 718.5V581.35" stroke="#000" stroke-width="3" fill="none"/><path d="M1530.98 720h-3v-1.5h3zM1534.12 580.62h-9.27l4.63-14.27z"/><path d="M1536.18 582.12h-13.4l6.7-20.62zm-9.27-3h5.15l-2.57-7.9z"/><path d="M1364.74 620h350.52v70.2h-350.52z" stroke="#000" stroke-opacity="0" fill="#fff" fill-opacity="0"/><use xlink:href="#t" transform="matrix(1,0,0,1,1369.7416666666395,625) translate(4.632407407407413 28.977777777777778)"/><use xlink:href="#u" transform="matrix(1,0,0,1,1369.7416666666395,625) translate(159.38179012345677 28.977777777777778)"/><use xlink:href="#v" transform="matrix(1,0,0,1,1369.7416666666395,625) translate(217.63919753086418 28.977777777777778)"/><use xlink:href="#w" transform="matrix(1,0,0,1,1369.7416666666395,625) translate(257.88611111111106 28.977777777777778)"/><use xlink:href="#x" transform="matrix(1,0,0,1,1369.7416666666395,625) translate(170.5 72.44444444444444)"/><path d="M1447.98 1158.5V921.35M1447.98 1158.5v3" stroke="#000" stroke-width="3" fill="none"/><path d="M1452.62 920.62h-9.27l4.63-14.27z"/><path d="M1454.68 922.12h-13.4l6.7-20.62zm-9.27-3h5.15l-2.57-7.9z"/><path d="M1605.55 901.5v237.15" stroke="#000" stroke-width="3" fill="none"/><path d="M1607.05 901.5h-3V900h3z"/><path d="M1605.55 1153.65l-4.64-14.27h9.3z" stroke="#000" stroke-width="3"/><path d="M1654.45 901.5v237.15" stroke="#000" stroke-width="3" fill="none"/><path d="M1655.95 901.5h-3V900h3z"/><path d="M1654.45 1153.65l-4.64-14.27h9.3z" stroke="#000" stroke-width="3"/><path d="M1320 1001.53h240v96.94h-240z" stroke="#000" stroke-opacity="0" fill="#fff" fill-opacity="0"/><use xlink:href="#y" transform="matrix(1,0,0,1,1325,1006.5333333333333) translate(32.594444444444434 50.74444444444444)"/><use xlink:href="#r" transform="matrix(1,0,0,1,1325,1006.5333333333333) translate(120.93641975308643 50.74444444444444)"/><path d="M1560 1046.03h460v61.74h-460z" stroke="#000" stroke-opacity="0" fill="#fff" fill-opacity="0"/><use xlink:href="#z" transform="matrix(1,0,0,1,1565,1051.0333333333526) translate(46.957716049382725 28.977777777777778)"/><use xlink:href="#A" transform="matrix(1,0,0,1,1565,1051.0333333333526) translate(238.02993827160492 28.977777777777778)"/><use xlink:href="#B" transform="matrix(1,0,0,1,1565,1051.0333333333526) translate(306.44969135802467 28.977777777777778)"/><use xlink:href="#C" transform="matrix(1,0,0,1,1565,1051.0333333333526) translate(225 72.44444444444444)"/><path d="M1640 921.53h240v96.94h-240z" stroke="#000" stroke-opacity="0" fill="#fff" fill-opacity="0"/><use xlink:href="#D" transform="matrix(1,0,0,1,1645,926.5333333333333) translate(16.44537037037037 50.74444444444444)"/><use xlink:href="#E" transform="matrix(1,0,0,1,1645,926.5333333333333) translate(147.24783950617285 50.74444444444444)"/><path d="M1966.87 1158.5V921.35M1966.87 1158.5v3" stroke="#000" stroke-width="3" fill="none"/><path d="M1971.5 920.62h-9.27l4.64-14.27z"/><path d="M1973.57 922.12h-13.4l6.7-20.62zm-9.27-3h5.14l-2.57-7.9z"/><path d="M1960 921.53h240v96.94h-240z" stroke="#000" stroke-opacity="0" fill="#fff" fill-opacity="0"/><use xlink:href="#F" transform="matrix(1,0,0,1,1965,926.5333333333331) translate(24.64567901234568 50.74444444444444)"/><use xlink:href="#E" transform="matrix(1,0,0,1,1965,926.5333333333331) translate(139.04753086419754 50.74444444444444)"/><path d="M2020 1018.47h240v96.93h-240z" stroke="#000" stroke-opacity="0" fill="#fff" fill-opacity="0"/><use xlink:href="#G" transform="matrix(1,0,0,1,2025,1023.4666666666665) translate(26.50709876543209 50.74444444444444)"/><use xlink:href="#H" transform="matrix(1,0,0,1,2025,1023.4666666666665) translate(137.1861111111111 50.74444444444444)"/><path d="M2037.5 901.5v501.55" stroke="#000" stroke-width="3" fill="none"/><path d="M2039 901.5h-3V900h3zM2037.5 1418.05l-4.64-14.26h9.28z"/><path d="M2037.5 1422.9l-6.7-20.6h13.4zm-2.57-17.6l2.57 7.9 2.57-7.9z"/><path d="M2279.28 718.5V598.13" stroke="#000" stroke-width="3" fill="none"/><path d="M2280.78 720h-3v-1.5h3zM2283.92 597.4h-9.27l4.63-14.27z"/><path d="M2285.98 598.9h-13.4l6.7-20.62zm-9.27-3h5.15l-2.57-7.9z"/><path d="M2358.93 578.6v120.05" stroke="#000" stroke-width="3" fill="none"/><path d="M2360.43 578.6h-3v-1.24l3-.6zM2358.93 713.65l-4.64-14.27h9.26z"/><path d="M2358.93 718.5l-6.7-20.62h13.4zm-2.57-17.62l2.57 7.9 2.57-7.9z"/><path d="M2320 1158.5V921.35M2320 1158.5v3" stroke="#000" stroke-width="3" fill="none"/><path d="M2324.64 920.62h-9.28l4.64-14.27z"/><path d="M2326.7 922.12h-13.4l6.7-20.62zm-9.27-3h5.14l-2.57-7.9z"/><path d="M2300 923.07h280V1020h-280z" stroke="#000" stroke-opacity="0" fill="#fff" fill-opacity="0"/><use xlink:href="#F" transform="matrix(1,0,0,1,2305,928.0666666666666) translate(0.37407407407408755 50.74444444444444)"/><use xlink:href="#I" transform="matrix(1,0,0,1,2305,928.0666666666666) translate(114.77592592592595 50.74444444444444)"/><use xlink:href="#J" transform="matrix(1,0,0,1,2305,928.0666666666666) translate(173.03333333333336 50.74444444444444)"/><path d="M2409.68 901.5v504.66" stroke="#000" stroke-width="3" fill="none"/><path d="M2411.18 901.5h-3V900h3zM2409.68 1421.16l-4.63-14.26h9.27z"/><path d="M2409.68 1426.02l-6.7-20.62h13.4zm-2.57-17.62l2.58 7.9 2.57-7.9z"/><path d="M2400 1018.47h280v96.93h-280z" stroke="#000" stroke-opacity="0" fill="#fff" fill-opacity="0"/><use xlink:href="#K" transform="matrix(1,0,0,1,2405,1023.4666666666665) translate(7.216049382716065 50.74444444444444)"/><use xlink:href="#L" transform="matrix(1,0,0,1,2405,1023.4666666666665) translate(75.63580246913581 50.74444444444444)"/><use xlink:href="#M" transform="matrix(1,0,0,1,2405,1023.4666666666665) translate(182.29012345679013 50.74444444444444)"/><use xlink:href="#N" transform="matrix(1,0,0,1,2405,1023.4666666666665) translate(222.537037037037 50.74444444444444)"/><path d="M1395.26 1855.33h320v180h-320z" stroke="#000" stroke-width="3" fill="#fff"/><g><use xlink:href="#O" transform="matrix(1,0,0,1,1400.2583333333605,1860.3333333333721) translate(95.0824074074074 92.24444444444444)"/><use xlink:href="#P" transform="matrix(1,0,0,1,1400.2583333333605,1860.3333333333721) translate(178.79598765432098 92.24444444444444)"/></g><path d="M1390 1600h320v180h-320z" stroke="#000" stroke-width="3" fill="#fff"/><g><use xlink:href="#Q" transform="matrix(1,0,0,1,1395,1605) translate(116.76543209876543 92.24444444444444)"/></g><path d="M1473.67 1598.5v-52.78" stroke="#000" stroke-width="3" fill="none"/><path d="M1475.17 1600h-3v-1.5h3zM1478.3 1544.98h-9.26l4.63-14.26z"/><path d="M1480.37 1546.48h-13.4l6.7-20.62zm-9.27-3h5.14l-2.57-7.9z"/><path d="M1473.67 1853.83v-52.48" stroke="#000" stroke-width="3" fill="none"/><path d="M1475.17 1855.33h-3v-1.5h3zM1478.3 1800.62h-9.26l4.63-14.27z"/><path d="M1480.37 1802.12h-13.4l6.7-20.62zm-9.27-3h5.14l-2.57-7.9z"/><path d="M1610.98 1525.52v53.13" stroke="#000" stroke-width="3" fill="none"/><path d="M1612.48 1525.52h-3v-1.5h3zM1610.98 1593.65l-4.63-14.27h9.27z"/><path d="M1610.98 1598.5l-6.7-20.62h13.4zm-2.57-17.62l2.58 7.9 2.57-7.9z"/><path d="M1610.98 1781.5l1.97 52.5" stroke="#000" stroke-width="3" fill="none"/><path d="M1612.48 1781.44l-3 .12-.05-1.56h3zM1613.52 1848.98l-5.17-14.08 9.26-.35z"/><path d="M1613.7 1853.83l-7.47-20.35 13.4-.5zm-3.23-17.5l2.87 7.8 2.27-8z"/><defs><path d="M30 0v-248h33v221h125V0H30" id="R"/><path d="M24-231v-30h32v30H24zM24 0v-190h32V0H24" id="S"/><path d="M135-143c-3-34-86-38-87 0 15 53 115 12 119 90S17 21 10-45l28-5c4 36 97 45 98 0-10-56-113-15-118-90-4-57 82-63 122-42 12 7 21 19 24 35" id="T"/><path d="M59-47c-2 24 18 29 38 22v24C64 9 27 4 27-40v-127H5v-23h24l9-43h21v43h35v23H59v120" id="U"/><path d="M100-194c63 0 86 42 84 106H49c0 40 14 67 53 68 26 1 43-12 49-29l28 8c-11 28-37 45-77 45C44 4 14-33 15-96c1-61 26-98 85-98zm52 81c6-60-76-77-97-28-3 7-6 17-6 28h103" id="V"/><path d="M117-194c89-4 53 116 60 194h-32v-121c0-31-8-49-39-48C34-167 62-67 57 0H25l-1-190h30c1 10-1 24 2 32 11-22 29-35 61-36" id="W"/><path d="M114-163C36-179 61-72 57 0H25l-1-190h30c1 12-1 29 2 39 6-27 23-49 58-41v29" id="X"/><g id="a"><use transform="matrix(0.10061728395061728,0,0,0.10061728395061728,0,0)" xlink:href="#R"/><use transform="matrix(0.10061728395061728,0,0,0.10061728395061728,20.123456790123456,0)" xlink:href="#S"/><use transform="matrix(0.10061728395061728,0,0,0.10061728395061728,28.072222222222223,0)" xlink:href="#T"/><use transform="matrix(0.10061728395061728,0,0,0.10061728395061728,46.18333333333334,0)" xlink:href="#U"/><use transform="matrix(0.10061728395061728,0,0,0.10061728395061728,56.24506172839506,0)" xlink:href="#V"/><use transform="matrix(0.10061728395061728,0,0,0.10061728395061728,76.36851851851853,0)" xlink:href="#W"/><use transform="matrix(0.10061728395061728,0,0,0.10061728395061728,96.49197530864198,0)" xlink:href="#V"/><use transform="matrix(0.10061728395061728,0,0,0.10061728395061728,116.61543209876542,0)" xlink:href="#X"/></g><path d="M143 4C61 4 22-44 18-125c-5-107 100-154 193-111 17 8 29 25 37 43l-32 9c-13-25-37-40-76-40-61 0-88 39-88 99 0 61 29 100 91 101 35 0 62-11 79-27v-45h-74v-28h105v86C228-13 192 4 143 4" id="Y"/><path d="M141-36C126-15 110 5 73 4 37 3 15-17 15-53c-1-64 63-63 125-63 3-35-9-54-41-54-24 1-41 7-42 31l-33-3c5-37 33-52 76-52 45 0 72 20 72 64v82c-1 20 7 32 28 27v20c-31 9-61-2-59-35zM48-53c0 20 12 33 32 33 41-3 63-29 60-74-43 2-92-5-92 41" id="Z"/><path d="M143 0L79-87 56-68V0H24v-261h32v163l83-92h37l-77 82L181 0h-38" id="aa"/><path d="M115-194c55 1 70 41 70 98S169 2 115 4C84 4 66-9 55-30l1 105H24l-1-265h31l2 30c10-21 28-34 59-34zm-8 174c40 0 45-34 45-75s-6-73-45-74c-42 0-51 32-51 76 0 43 10 73 51 73" id="ab"/><g id="b"><use transform="matrix(0.10061728395061728,0,0,0.10061728395061728,0,0)" xlink:href="#Y"/><use transform="matrix(0.10061728395061728,0,0,0.10061728395061728,28.17283950617284,0)" xlink:href="#Z"/><use transform="matrix(0.10061728395061728,0,0,0.10061728395061728,48.29629629629629,0)" xlink:href="#U"/><use transform="matrix(0.10061728395061728,0,0,0.10061728395061728,58.358024691358025,0)" xlink:href="#V"/><use transform="matrix(0.10061728395061728,0,0,0.10061728395061728,78.48148148148147,0)" xlink:href="#aa"/><use transform="matrix(0.10061728395061728,0,0,0.10061728395061728,96.59259259259258,0)" xlink:href="#V"/><use transform="matrix(0.10061728395061728,0,0,0.10061728395061728,116.71604938271605,0)" xlink:href="#V"/><use transform="matrix(0.10061728395061728,0,0,0.10061728395061728,136.8395061728395,0)" xlink:href="#ab"/><use transform="matrix(0.10061728395061728,0,0,0.10061728395061728,156.96296296296293,0)" xlink:href="#V"/><use transform="matrix(0.10061728395061728,0,0,0.10061728395061728,177.08641975308637,0)" xlink:href="#X"/></g><path d="M87 75C49 33 22-17 22-94c0-76 28-126 65-167h31c-38 41-64 92-64 168S80 34 118 75H87" id="ac"/><path d="M160-131c35 5 61 23 61 61C221 17 115-2 30 0v-248c76 3 177-17 177 60 0 33-19 50-47 57zm-97-11c50-1 110 9 110-42 0-47-63-36-110-37v79zm0 115c55-2 124 14 124-45 0-56-70-42-124-44v89" id="ad"/><path d="M33-261c38 41 65 92 65 168S71 34 33 75H2C39 34 66-17 66-93S39-220 2-261h31" id="ae"/><g id="c"><use transform="matrix(0.10061728395061728,0,0,0.10061728395061728,0,0)" xlink:href="#ac"/><use transform="matrix(0.10061728395061728,0,0,0.10061728395061728,11.973456790123457,0)" xlink:href="#ad"/><use transform="matrix(0.10061728395061728,0,0,0.10061728395061728,36.1216049382716,0)" xlink:href="#Z"/><use transform="matrix(0.10061728395061728,0,0,0.10061728395061728,56.24506172839506,0)" xlink:href="#V"/><use transform="matrix(0.10061728395061728,0,0,0.10061728395061728,76.36851851851851,0)" xlink:href="#ae"/></g><path d="M185-189c-5-48-123-54-124 2 14 75 158 14 163 119 3 78-121 87-175 55-17-10-28-26-33-46l33-7c5 56 141 63 141-1 0-78-155-14-162-118-5-82 145-84 179-34 5 7 8 16 11 25" id="af"/><path d="M96-169c-40 0-48 33-48 73s9 75 48 75c24 0 41-14 43-38l32 2c-6 37-31 61-74 61-59 0-76-41-82-99-10-93 101-131 147-64 4 7 5 14 7 22l-32 3c-4-21-16-35-41-35" id="ag"/><path d="M106-169C34-169 62-67 57 0H25v-261h32l-1 103c12-21 28-36 61-36 89 0 53 116 60 194h-32v-121c2-32-8-49-39-48" id="ah"/><path d="M85-194c31 0 48 13 60 33l-1-100h32l1 261h-30c-2-10 0-23-3-31C134-8 116 4 85 4 32 4 16-35 15-94c0-66 23-100 70-100zm9 24c-40 0-46 34-46 75 0 40 6 74 45 74 42 0 51-32 51-76 0-42-9-74-50-73" id="ai"/><path d="M84 4C-5 8 30-112 23-190h32v120c0 31 7 50 39 49 72-2 45-101 50-169h31l1 190h-30c-1-10 1-25-2-33-11 22-28 36-60 37" id="aj"/><path d="M24 0v-261h32V0H24" id="ak"/><g id="d"><use transform="matrix(0.10061728395061728,0,0,0.10061728395061728,0,0)" xlink:href="#af"/><use transform="matrix(0.10061728395061728,0,0,0.10061728395061728,24.14814814814815,0)" xlink:href="#ag"/><use transform="matrix(0.10061728395061728,0,0,0.10061728395061728,42.25925925925926,0)" xlink:href="#ah"/><use transform="matrix(0.10061728395061728,0,0,0.10061728395061728,62.382716049382715,0)" xlink:href="#V"/><use transform="matrix(0.10061728395061728,0,0,0.10061728395061728,82.50617283950618,0)" xlink:href="#ai"/><use transform="matrix(0.10061728395061728,0,0,0.10061728395061728,102.62962962962963,0)" xlink:href="#aj"/><use transform="matrix(0.10061728395061728,0,0,0.10061728395061728,122.75308641975309,0)" xlink:href="#ak"/><use transform="matrix(0.10061728395061728,0,0,0.10061728395061728,130.70185185185184,0)" xlink:href="#V"/><use transform="matrix(0.10061728395061728,0,0,0.10061728395061728,150.8253086419753,0)" xlink:href="#X"/></g><path d="M266 0h-40l-56-210L115 0H75L2-248h35L96-30l15-64 43-154h32l59 218 59-218h35" id="al"/><path d="M100-194c62-1 85 37 85 99 1 63-27 99-86 99S16-35 15-95c0-66 28-99 85-99zM99-20c44 1 53-31 53-75 0-43-8-75-51-75s-53 32-53 75 10 74 51 75" id="am"/><g id="e"><use transform="matrix(0.10061728395061728,0,0,0.10061728395061728,0,0)" xlink:href="#al"/><use transform="matrix(0.10061728395061728,0,0,0.10061728395061728,33.40493827160494,0)" xlink:href="#am"/><use transform="matrix(0.10061728395061728,0,0,0.10061728395061728,53.528395061728396,0)" xlink:href="#X"/><use transform="matrix(0.10061728395061728,0,0,0.10061728395061728,65.50185185185185,0)" xlink:href="#aa"/><use transform="matrix(0.10061728395061728,0,0,0.10061728395061728,83.61296296296297,0)" xlink:href="#V"/><use transform="matrix(0.10061728395061728,0,0,0.10061728395061728,103.73641975308642,0)" xlink:href="#X"/></g><path d="M177-190C167-65 218 103 67 71c-23-6-38-20-44-43l32-5c15 47 100 32 89-28v-30C133-14 115 1 83 1 29 1 15-40 15-95c0-56 16-97 71-98 29-1 48 16 59 35 1-10 0-23 2-32h30zM94-22c36 0 50-32 50-73 0-42-14-75-50-75-39 0-46 34-46 75s6 73 46 73" id="an"/><g id="f"><use transform="matrix(0.10061728395061728,0,0,0.10061728395061728,0,0)" xlink:href="#R"/><use transform="matrix(0.10061728395061728,0,0,0.10061728395061728,20.123456790123456,0)" xlink:href="#am"/><use transform="matrix(0.10061728395061728,0,0,0.10061728395061728,40.24691358024691,0)" xlink:href="#an"/><use transform="matrix(0.10061728395061728,0,0,0.10061728395061728,60.37037037037037,0)" xlink:href="#T"/></g><path d="M197 0v-115H63V0H30v-248h33v105h134v-105h34V0h-34" id="ao"/><path d="M115-194c53 0 69 39 70 98 0 66-23 100-70 100C84 3 66-7 56-30L54 0H23l1-261h32v101c10-23 28-34 59-34zm-8 174c40 0 45-34 45-75 0-40-5-75-45-74-42 0-51 32-51 76 0 43 10 73 51 73" id="ap"/><g id="g"><use transform="matrix(0.10061728395061728,0,0,0.10061728395061728,0,0)" xlink:href="#ao"/><use transform="matrix(0.10061728395061728,0,0,0.10061728395061728,26.059876543209874,0)" xlink:href="#aj"/><use transform="matrix(0.10061728395061728,0,0,0.10061728395061728,46.18333333333333,0)" xlink:href="#ap"/></g><path d="M127-220V0H93v-220H8v-28h204v28h-85" id="aq"/><g id="h"><use transform="matrix(0.10061728395061728,0,0,0.10061728395061728,0,0)" xlink:href="#aq"/><use transform="matrix(0.10061728395061728,0,0,0.10061728395061728,18.010493827160495,0)" xlink:href="#Z"/><use transform="matrix(0.10061728395061728,0,0,0.10061728395061728,38.13395061728395,0)" xlink:href="#T"/><use transform="matrix(0.10061728395061728,0,0,0.10061728395061728,56.24506172839506,0)" xlink:href="#aa"/><use transform="matrix(0.10061728395061728,0,0,0.10061728395061728,74.35617283950617,0)" xlink:href="#T"/></g><path d="M190 0L58-211 59 0H30v-248h39L202-35l-2-213h31V0h-41" id="ar"/><path d="M33 0v-248h34V0H33" id="as"/><g id="i"><use transform="matrix(0.10061728395061728,0,0,0.10061728395061728,0,0)" xlink:href="#ac"/><use transform="matrix(0.10061728395061728,0,0,0.10061728395061728,11.973456790123457,0)" xlink:href="#ar"/><use transform="matrix(0.10061728395061728,0,0,0.10061728395061728,38.03333333333333,0)" xlink:href="#as"/><use transform="matrix(0.10061728395061728,0,0,0.10061728395061728,48.09506172839506,0)" xlink:href="#ae"/></g><path d="M233-177c-1 41-23 64-60 70L243 0h-38l-65-103H63V0H30v-248c88 3 205-21 203 71zM63-129c60-2 137 13 137-47 0-61-80-42-137-45v92" id="at"/><g id="j"><use transform="matrix(0.10061728395061728,0,0,0.10061728395061728,0,0)" xlink:href="#at"/><use transform="matrix(0.10061728395061728,0,0,0.10061728395061728,26.059876543209874,0)" xlink:href="#V"/><use transform="matrix(0.10061728395061728,0,0,0.10061728395061728,46.18333333333333,0)" xlink:href="#ai"/><use transform="matrix(0.10061728395061728,0,0,0.10061728395061728,66.30679012345678,0)" xlink:href="#S"/><use transform="matrix(0.10061728395061728,0,0,0.10061728395061728,74.25555555555555,0)" xlink:href="#T"/></g><path d="M30-248c87 1 191-15 191 75 0 78-77 80-158 76V0H30v-248zm33 125c57 0 124 11 124-50 0-59-68-47-124-48v98" id="au"/><g id="k"><use transform="matrix(0.10061728395061728,0,0,0.10061728395061728,0,0)" xlink:href="#au"/><use transform="matrix(0.10061728395061728,0,0,0.10061728395061728,24.14814814814815,0)" xlink:href="#am"/><use transform="matrix(0.10061728395061728,0,0,0.10061728395061728,44.27160493827161,0)" xlink:href="#T"/><use transform="matrix(0.10061728395061728,0,0,0.10061728395061728,62.38271604938273,0)" xlink:href="#U"/><use transform="matrix(0.10061728395061728,0,0,0.10061728395061728,72.44444444444446,0)" xlink:href="#an"/><use transform="matrix(0.10061728395061728,0,0,0.10061728395061728,92.56790123456791,0)" xlink:href="#X"/><use transform="matrix(0.10061728395061728,0,0,0.10061728395061728,104.54135802469135,0)" xlink:href="#V"/><use transform="matrix(0.10061728395061728,0,0,0.10061728395061728,124.66481481481482,0)" xlink:href="#T"/></g><path fill="#7ab648" d="M160-131c35 5 61 23 61 61C221 17 115-2 30 0v-248c76 3 177-17 177 60 0 33-19 50-47 57zm-97-11c50-1 110 9 110-42 0-47-63-36-110-37v79zm0 115c55-2 124 14 124-45 0-56-70-42-124-44v89" id="av"/><path fill="#7ab648" d="M84 4C-5 8 30-112 23-190h32v120c0 31 7 50 39 49 72-2 45-101 50-169h31l1 190h-30c-1-10 1-25-2-33-11 22-28 36-60 37" id="aw"/><path fill="#7ab648" d="M24-231v-30h32v30H24zM24 0v-190h32V0H24" id="ax"/><path fill="#7ab648" d="M24 0v-261h32V0H24" id="ay"/><path fill="#7ab648" d="M85-194c31 0 48 13 60 33l-1-100h32l1 261h-30c-2-10 0-23-3-31C134-8 116 4 85 4 32 4 16-35 15-94c0-66 23-100 70-100zm9 24c-40 0-46 34-46 75 0 40 6 74 45 74 42 0 51-32 51-76 0-42-9-74-50-73" id="az"/><g id="l"><use transform="matrix(0.10061728395061728,0,0,0.10061728395061728,0,0)" xlink:href="#av"/><use transform="matrix(0.10061728395061728,0,0,0.10061728395061728,24.14814814814815,0)" xlink:href="#aw"/><use transform="matrix(0.10061728395061728,0,0,0.10061728395061728,44.27160493827161,0)" xlink:href="#ax"/><use transform="matrix(0.10061728395061728,0,0,0.10061728395061728,52.22037037037038,0)" xlink:href="#ay"/><use transform="matrix(0.10061728395061728,0,0,0.10061728395061728,60.16913580246914,0)" xlink:href="#az"/></g><path fill="#7ab648" d="M234-2c-28 10-62 0-77-18C117 19 8 12 13-65c3-43 29-61 60-76-25-40-17-114 47-108 35 3 59 15 59 50 0 44-40 53-71 69 14 26 32 50 51 72 14-21 24-43 30-72l26 8c-9 33-21 57-38 82 13 13 33 22 57 15v23zM97-151c25-10 52-18 56-48-1-18-13-29-33-29-42 0-39 50-23 77zM42-66c-3 51 71 58 98 28-20-24-41-51-56-80-23 10-40 24-42 52" id="aA"/><use transform="matrix(0.10061728395061728,0,0,0.10061728395061728,0,0)" xlink:href="#aA" id="m"/><path fill="#7ab648" d="M153-248C145-148 188 4 80 4 36 3 13-21 6-62l32-5c4 25 16 42 43 43 27 0 39-20 39-49v-147H72v-28h81" id="aB"/><path fill="#7ab648" d="M100-194c62-1 85 37 85 99 1 63-27 99-86 99S16-35 15-95c0-66 28-99 85-99zM99-20c44 1 53-31 53-75 0-43-8-75-51-75s-53 32-53 75 10 74 51 75" id="aC"/><path fill="#7ab648" d="M115-194c53 0 69 39 70 98 0 66-23 100-70 100C84 3 66-7 56-30L54 0H23l1-261h32v101c10-23 28-34 59-34zm-8 174c40 0 45-34 45-75 0-40-5-75-45-74-42 0-51 32-51 76 0 43 10 73 51 73" id="aD"/><path fill="#7ab648" d="M135-143c-3-34-86-38-87 0 15 53 115 12 119 90S17 21 10-45l28-5c4 36 97 45 98 0-10-56-113-15-118-90-4-57 82-63 122-42 12 7 21 19 24 35" id="aE"/><g id="n"><use transform="matrix(0.10061728395061728,0,0,0.10061728395061728,0,0)" xlink:href="#aB"/><use transform="matrix(0.10061728395061728,0,0,0.10061728395061728,18.11111111111111,0)" xlink:href="#aC"/><use transform="matrix(0.10061728395061728,0,0,0.10061728395061728,38.23456790123457,0)" xlink:href="#aD"/><use transform="matrix(0.10061728395061728,0,0,0.10061728395061728,58.358024691358025,0)" xlink:href="#aE"/></g><path fill="#0c7cba" d="M233-177c-1 41-23 64-60 70L243 0h-38l-65-103H63V0H30v-248c88 3 205-21 203 71zM63-129c60-2 137 13 137-47 0-61-80-42-137-45v92" id="aF"/><path fill="#0c7cba" d="M141-36C126-15 110 5 73 4 37 3 15-17 15-53c-1-64 63-63 125-63 3-35-9-54-41-54-24 1-41 7-42 31l-33-3c5-37 33-52 76-52 45 0 72 20 72 64v82c-1 20 7 32 28 27v20c-31 9-61-2-59-35zM48-53c0 20 12 33 32 33 41-3 63-29 60-74-43 2-92-5-92 41" id="aG"/><path fill="#0c7cba" d="M115-194c53 0 69 39 70 98 0 66-23 100-70 100C84 3 66-7 56-30L54 0H23l1-261h32v101c10-23 28-34 59-34zm-8 174c40 0 45-34 45-75 0-40-5-75-45-74-42 0-51 32-51 76 0 43 10 73 51 73" id="aH"/><path fill="#0c7cba" d="M24-231v-30h32v30H24zM24 0v-190h32V0H24" id="aI"/><path fill="#0c7cba" d="M59-47c-2 24 18 29 38 22v24C64 9 27 4 27-40v-127H5v-23h24l9-43h21v43h35v23H59v120" id="aJ"/><path fill="#0c7cba" d="M210-169c-67 3-38 105-44 169h-31v-121c0-29-5-50-35-48C34-165 62-65 56 0H25l-1-190h30c1 10-1 24 2 32 10-44 99-50 107 0 11-21 27-35 58-36 85-2 47 119 55 194h-31v-121c0-29-5-49-35-48" id="aK"/><path fill="#0c7cba" d="M145-31C134-9 116 4 85 4 32 4 16-35 15-94c0-59 17-99 70-100 32-1 48 14 60 33 0-11-1-24 2-32h30l-1 268h-32zM93-21c41 0 51-33 51-76s-8-73-50-73c-40 0-46 35-46 75s5 74 45 74" id="aL"/><g id="o"><use transform="matrix(0.10061728395061728,0,0,0.10061728395061728,0,0)" xlink:href="#aF"/><use transform="matrix(0.10061728395061728,0,0,0.10061728395061728,26.059876543209874,0)" xlink:href="#aG"/><use transform="matrix(0.10061728395061728,0,0,0.10061728395061728,46.18333333333333,0)" xlink:href="#aH"/><use transform="matrix(0.10061728395061728,0,0,0.10061728395061728,66.30679012345678,0)" xlink:href="#aH"/><use transform="matrix(0.10061728395061728,0,0,0.10061728395061728,86.43024691358023,0)" xlink:href="#aI"/><use transform="matrix(0.10061728395061728,0,0,0.10061728395061728,94.379012345679,0)" xlink:href="#aJ"/><use transform="matrix(0.10061728395061728,0,0,0.10061728395061728,104.44074074074072,0)" xlink:href="#aK"/><use transform="matrix(0.10061728395061728,0,0,0.10061728395061728,134.5253086419753,0)" xlink:href="#aL"/></g><path fill="#7ab648" d="M30-248c87 1 191-15 191 75 0 78-77 80-158 76V0H30v-248zm33 125c57 0 124 11 124-50 0-59-68-47-124-48v98" id="aM"/><g id="p"><use transform="matrix(0.10061728395061728,0,0,0.10061728395061728,0,0)" xlink:href="#aM"/><use transform="matrix(0.10061728395061728,0,0,0.10061728395061728,24.14814814814815,0)" xlink:href="#aC"/><use transform="matrix(0.10061728395061728,0,0,0.10061728395061728,44.27160493827161,0)" xlink:href="#ay"/><use transform="matrix(0.10061728395061728,0,0,0.10061728395061728,52.22037037037038,0)" xlink:href="#ay"/><use transform="matrix(0.10061728395061728,0,0,0.10061728395061728,60.16913580246914,0)" xlink:href="#aE"/></g><path fill="#0c7cba" d="M30 0v-248h187v28H63v79h144v27H63v87h162V0H30" id="aN"/><path fill="#0c7cba" d="M117-194c89-4 53 116 60 194h-32v-121c0-31-8-49-39-48C34-167 62-67 57 0H25l-1-190h30c1 10-1 24 2 32 11-22 29-35 61-36" id="aO"/><path fill="#0c7cba" d="M100-194c63 0 86 42 84 106H49c0 40 14 67 53 68 26 1 43-12 49-29l28 8c-11 28-37 45-77 45C44 4 14-33 15-96c1-61 26-98 85-98zm52 81c6-60-76-77-97-28-3 7-6 17-6 28h103" id="aP"/><path fill="#0c7cba" d="M84 4C-5 8 30-112 23-190h32v120c0 31 7 50 39 49 72-2 45-101 50-169h31l1 190h-30c-1-10 1-25-2-33-11 22-28 36-60 37" id="aQ"/><path fill="#0c7cba" d="M135-143c-3-34-86-38-87 0 15 53 115 12 119 90S17 21 10-45l28-5c4 36 97 45 98 0-10-56-113-15-118-90-4-57 82-63 122-42 12 7 21 19 24 35" id="aR"/><g id="q"><use transform="matrix(0.10061728395061728,0,0,0.10061728395061728,0,0)" xlink:href="#aN"/><use transform="matrix(0.10061728395061728,0,0,0.10061728395061728,24.14814814814815,0)" xlink:href="#aO"/><use transform="matrix(0.10061728395061728,0,0,0.10061728395061728,44.27160493827161,0)" xlink:href="#aL"/><use transform="matrix(0.10061728395061728,0,0,0.10061728395061728,64.39506172839506,0)" xlink:href="#aP"/><use transform="matrix(0.10061728395061728,0,0,0.10061728395061728,84.51851851851852,0)" xlink:href="#aQ"/><use transform="matrix(0.10061728395061728,0,0,0.10061728395061728,104.64197530864197,0)" xlink:href="#aP"/><use transform="matrix(0.10061728395061728,0,0,0.10061728395061728,124.76543209876543,0)" xlink:href="#aR"/></g><path fill="#0c7cba" d="M153-248C145-148 188 4 80 4 36 3 13-21 6-62l32-5c4 25 16 42 43 43 27 0 39-20 39-49v-147H72v-28h81" id="aS"/><path fill="#0c7cba" d="M100-194c62-1 85 37 85 99 1 63-27 99-86 99S16-35 15-95c0-66 28-99 85-99zM99-20c44 1 53-31 53-75 0-43-8-75-51-75s-53 32-53 75 10 74 51 75" id="aT"/><g id="r"><use transform="matrix(0.10061728395061728,0,0,0.10061728395061728,0,0)" xlink:href="#aS"/><use transform="matrix(0.10061728395061728,0,0,0.10061728395061728,18.11111111111111,0)" xlink:href="#aT"/><use transform="matrix(0.10061728395061728,0,0,0.10061728395061728,38.23456790123457,0)" xlink:href="#aH"/><use transform="matrix(0.10061728395061728,0,0,0.10061728395061728,58.358024691358025,0)" xlink:href="#aR"/></g><g id="s"><use transform="matrix(0.10061728395061728,0,0,0.10061728395061728,0,0)" xlink:href="#ad"/><use transform="matrix(0.10061728395061728,0,0,0.10061728395061728,24.14814814814815,0)" xlink:href="#aj"/><use transform="matrix(0.10061728395061728,0,0,0.10061728395061728,44.27160493827161,0)" xlink:href="#S"/><use transform="matrix(0.10061728395061728,0,0,0.10061728395061728,52.22037037037038,0)" xlink:href="#ak"/><use transform="matrix(0.10061728395061728,0,0,0.10061728395061728,60.16913580246914,0)" xlink:href="#ai"/></g><path d="M212-179c-10-28-35-45-73-45-59 0-87 40-87 99 0 60 29 101 89 101 43 0 62-24 78-52l27 14C228-24 195 4 139 4 59 4 22-46 18-125c-6-104 99-153 187-111 19 9 31 26 39 46" id="aU"/><path d="M108 0H70L1-190h34L89-25l56-165h34" id="aV"/><g id="t"><use transform="matrix(0.10061728395061728,0,0,0.10061728395061728,0,0)" xlink:href="#aU"/><use transform="matrix(0.10061728395061728,0,0,0.10061728395061728,26.059876543209874,0)" xlink:href="#am"/><use transform="matrix(0.10061728395061728,0,0,0.10061728395061728,46.18333333333333,0)" xlink:href="#W"/><use transform="matrix(0.10061728395061728,0,0,0.10061728395061728,66.30679012345678,0)" xlink:href="#aV"/><use transform="matrix(0.10061728395061728,0,0,0.10061728395061728,84.41790123456789,0)" xlink:href="#V"/><use transform="matrix(0.10061728395061728,0,0,0.10061728395061728,104.54135802469135,0)" xlink:href="#X"/><use transform="matrix(0.10061728395061728,0,0,0.10061728395061728,116.51481481481478,0)" xlink:href="#U"/><use transform="matrix(0.10061728395061728,0,0,0.10061728395061728,126.57654320987652,0)" xlink:href="#T"/></g><path d="M24-231v-30h32v30H24zM-9 49c24 4 33-6 33-30v-209h32V24c2 40-23 58-65 49V49" id="aW"/><g id="u"><use transform="matrix(0.10061728395061728,0,0,0.10061728395061728,0,0)" xlink:href="#aW"/><use transform="matrix(0.10061728395061728,0,0,0.10061728395061728,7.9487654320987655,0)" xlink:href="#am"/><use transform="matrix(0.10061728395061728,0,0,0.10061728395061728,28.072222222222223,0)" xlink:href="#ap"/></g><g id="v"><use transform="matrix(0.10061728395061728,0,0,0.10061728395061728,0,0)" xlink:href="#U"/><use transform="matrix(0.10061728395061728,0,0,0.10061728395061728,10.061728395061728,0)" xlink:href="#am"/></g><g id="w"><use transform="matrix(0.10061728395061728,0,0,0.10061728395061728,0,0)" xlink:href="#ap"/><use transform="matrix(0.10061728395061728,0,0,0.10061728395061728,20.123456790123456,0)" xlink:href="#Z"/><use transform="matrix(0.10061728395061728,0,0,0.10061728395061728,40.24691358024691,0)" xlink:href="#T"/><use transform="matrix(0.10061728395061728,0,0,0.10061728395061728,58.358024691358025,0)" xlink:href="#ah"/></g><path fill="#0c7cba" d="M30-248c87 1 191-15 191 75 0 78-77 80-158 76V0H30v-248zm33 125c57 0 124 11 124-50 0-59-68-47-124-48v98" id="aX"/><path fill="#0c7cba" d="M24 0v-261h32V0H24" id="aY"/><g id="y"><use transform="matrix(0.10061728395061728,0,0,0.10061728395061728,0,0)" xlink:href="#aX"/><use transform="matrix(0.10061728395061728,0,0,0.10061728395061728,24.14814814814815,0)" xlink:href="#aT"/><use transform="matrix(0.10061728395061728,0,0,0.10061728395061728,44.27160493827161,0)" xlink:href="#aY"/><use transform="matrix(0.10061728395061728,0,0,0.10061728395061728,52.22037037037038,0)" xlink:href="#aY"/><use transform="matrix(0.10061728395061728,0,0,0.10061728395061728,60.16913580246914,0)" xlink:href="#aR"/></g><path fill="#0c7cba" d="M160-131c35 5 61 23 61 61C221 17 115-2 30 0v-248c76 3 177-17 177 60 0 33-19 50-47 57zm-97-11c50-1 110 9 110-42 0-47-63-36-110-37v79zm0 115c55-2 124 14 124-45 0-56-70-42-124-44v89" id="aZ"/><path fill="#0c7cba" d="M114-163C36-179 61-72 57 0H25l-1-190h30c1 12-1 29 2 39 6-27 23-49 58-41v29" id="ba"/><path fill="#0c7cba" d="M85-194c31 0 48 13 60 33l-1-100h32l1 261h-30c-2-10 0-23-3-31C134-8 116 4 85 4 32 4 16-35 15-94c0-66 23-100 70-100zm9 24c-40 0-46 34-46 75 0 40 6 74 45 74 42 0 51-32 51-76 0-42-9-74-50-73" id="bb"/><path fill="#0c7cba" d="M96-169c-40 0-48 33-48 73s9 75 48 75c24 0 41-14 43-38l32 2c-6 37-31 61-74 61-59 0-76-41-82-99-10-93 101-131 147-64 4 7 5 14 7 22l-32 3c-4-21-16-35-41-35" id="bc"/><g id="z"><use transform="matrix(0.10061728395061728,0,0,0.10061728395061728,0,0)" xlink:href="#aZ"/><use transform="matrix(0.10061728395061728,0,0,0.10061728395061728,24.14814814814815,0)" xlink:href="#ba"/><use transform="matrix(0.10061728395061728,0,0,0.10061728395061728,36.1216049382716,0)" xlink:href="#aT"/><use transform="matrix(0.10061728395061728,0,0,0.10061728395061728,56.24506172839506,0)" xlink:href="#aG"/><use transform="matrix(0.10061728395061728,0,0,0.10061728395061728,76.36851851851851,0)" xlink:href="#bb"/><use transform="matrix(0.10061728395061728,0,0,0.10061728395061728,96.49197530864197,0)" xlink:href="#bc"/><use transform="matrix(0.10061728395061728,0,0,0.10061728395061728,114.60308641975308,0)" xlink:href="#aG"/><use transform="matrix(0.10061728395061728,0,0,0.10061728395061728,134.72654320987652,0)" xlink:href="#aR"/><use transform="matrix(0.10061728395061728,0,0,0.10061728395061728,152.83765432098764,0)" xlink:href="#aJ"/><use transform="matrix(0.10061728395061728,0,0,0.10061728395061728,162.89938271604936,0)" xlink:href="#aR"/></g><g id="A"><use transform="matrix(0.10061728395061728,0,0,0.10061728395061728,0,0)" xlink:href="#aS"/><use transform="matrix(0.10061728395061728,0,0,0.10061728395061728,18.11111111111111,0)" xlink:href="#aT"/><use transform="matrix(0.10061728395061728,0,0,0.10061728395061728,38.23456790123457,0)" xlink:href="#aH"/></g><g id="B"><use transform="matrix(0.10061728395061728,0,0,0.10061728395061728,0,0)" xlink:href="#aR"/><use transform="matrix(0.10061728395061728,0,0,0.10061728395061728,18.11111111111111,0)" xlink:href="#aJ"/><use transform="matrix(0.10061728395061728,0,0,0.10061728395061728,28.17283950617284,0)" xlink:href="#aG"/><use transform="matrix(0.10061728395061728,0,0,0.10061728395061728,48.29629629629629,0)" xlink:href="#aJ"/><use transform="matrix(0.10061728395061728,0,0,0.10061728395061728,58.358024691358025,0)" xlink:href="#aQ"/><use transform="matrix(0.10061728395061728,0,0,0.10061728395061728,78.48148148148147,0)" xlink:href="#aR"/></g><path fill="#0c7cba" d="M106-169C34-169 62-67 57 0H25v-261h32l-1 103c12-21 28-36 61-36 89 0 53 116 60 194h-32v-121c2-32-8-49-39-48" id="bd"/><g id="D"><use transform="matrix(0.10061728395061728,0,0,0.10061728395061728,0,0)" xlink:href="#aX"/><use transform="matrix(0.10061728395061728,0,0,0.10061728395061728,24.14814814814815,0)" xlink:href="#aQ"/><use transform="matrix(0.10061728395061728,0,0,0.10061728395061728,44.27160493827161,0)" xlink:href="#aR"/><use transform="matrix(0.10061728395061728,0,0,0.10061728395061728,62.38271604938273,0)" xlink:href="#bd"/><use transform="matrix(0.10061728395061728,0,0,0.10061728395061728,82.50617283950618,0)" xlink:href="#aP"/><use transform="matrix(0.10061728395061728,0,0,0.10061728395061728,102.62962962962963,0)" xlink:href="#aR"/></g><path fill="#0c7cba" d="M177-190C167-65 218 103 67 71c-23-6-38-20-44-43l32-5c15 47 100 32 89-28v-30C133-14 115 1 83 1 29 1 15-40 15-95c0-56 16-97 71-98 29-1 48 16 59 35 1-10 0-23 2-32h30zM94-22c36 0 50-32 50-73 0-42-14-75-50-75-39 0-46 34-46 75s6 73 46 73" id="be"/><g id="E"><use transform="matrix(0.10061728395061728,0,0,0.10061728395061728,0,0)" xlink:href="#aY"/><use transform="matrix(0.10061728395061728,0,0,0.10061728395061728,7.9487654320987655,0)" xlink:href="#aT"/><use transform="matrix(0.10061728395061728,0,0,0.10061728395061728,28.072222222222223,0)" xlink:href="#be"/><use transform="matrix(0.10061728395061728,0,0,0.10061728395061728,48.19567901234568,0)" xlink:href="#aR"/></g><path fill="#0c7cba" d="M30-248c118-7 216 8 213 122C240-48 200 0 122 0H30v-248zM63-27c89 8 146-16 146-99s-60-101-146-95v194" id="bf"/><g id="F"><use transform="matrix(0.10061728395061728,0,0,0.10061728395061728,0,0)" xlink:href="#bf"/><use transform="matrix(0.10061728395061728,0,0,0.10061728395061728,26.059876543209874,0)" xlink:href="#ba"/><use transform="matrix(0.10061728395061728,0,0,0.10061728395061728,38.03333333333333,0)" xlink:href="#aG"/><use transform="matrix(0.10061728395061728,0,0,0.10061728395061728,58.15679012345679,0)" xlink:href="#aI"/><use transform="matrix(0.10061728395061728,0,0,0.10061728395061728,66.10555555555555,0)" xlink:href="#aO"/><use transform="matrix(0.10061728395061728,0,0,0.10061728395061728,86.22901234567901,0)" xlink:href="#aR"/></g><path fill="#7ab648" d="M185-189c-5-48-123-54-124 2 14 75 158 14 163 119 3 78-121 87-175 55-17-10-28-26-33-46l33-7c5 56 141 63 141-1 0-78-155-14-162-118-5-82 145-84 179-34 5 7 8 16 11 25" id="bg"/><path fill="#7ab648" d="M141-36C126-15 110 5 73 4 37 3 15-17 15-53c-1-64 63-63 125-63 3-35-9-54-41-54-24 1-41 7-42 31l-33-3c5-37 33-52 76-52 45 0 72 20 72 64v82c-1 20 7 32 28 27v20c-31 9-61-2-59-35zM48-53c0 20 12 33 32 33 41-3 63-29 60-74-43 2-92-5-92 41" id="bh"/><path fill="#7ab648" d="M108 0H70L1-190h34L89-25l56-165h34" id="bi"/><path fill="#7ab648" d="M100-194c63 0 86 42 84 106H49c0 40 14 67 53 68 26 1 43-12 49-29l28 8c-11 28-37 45-77 45C44 4 14-33 15-96c1-61 26-98 85-98zm52 81c6-60-76-77-97-28-3 7-6 17-6 28h103" id="bj"/><g id="G"><use transform="matrix(0.10061728395061728,0,0,0.10061728395061728,0,0)" xlink:href="#bg"/><use transform="matrix(0.10061728395061728,0,0,0.10061728395061728,24.14814814814815,0)" xlink:href="#bh"/><use transform="matrix(0.10061728395061728,0,0,0.10061728395061728,44.27160493827161,0)" xlink:href="#bi"/><use transform="matrix(0.10061728395061728,0,0,0.10061728395061728,62.38271604938273,0)" xlink:href="#bj"/><use transform="matrix(0.10061728395061728,0,0,0.10061728395061728,82.50617283950618,0)" xlink:href="#aE"/></g><path fill="#7ab648" d="M177-190C167-65 218 103 67 71c-23-6-38-20-44-43l32-5c15 47 100 32 89-28v-30C133-14 115 1 83 1 29 1 15-40 15-95c0-56 16-97 71-98 29-1 48 16 59 35 1-10 0-23 2-32h30zM94-22c36 0 50-32 50-73 0-42-14-75-50-75-39 0-46 34-46 75s6 73 46 73" id="bk"/><g id="H"><use transform="matrix(0.10061728395061728,0,0,0.10061728395061728,0,0)" xlink:href="#ay"/><use transform="matrix(0.10061728395061728,0,0,0.10061728395061728,7.9487654320987655,0)" xlink:href="#aC"/><use transform="matrix(0.10061728395061728,0,0,0.10061728395061728,28.072222222222223,0)" xlink:href="#bk"/><use transform="matrix(0.10061728395061728,0,0,0.10061728395061728,48.19567901234568,0)" xlink:href="#aE"/></g><path fill="#0c7cba" d="M24-231v-30h32v30H24zM-9 49c24 4 33-6 33-30v-209h32V24c2 40-23 58-65 49V49" id="bl"/><g id="I"><use transform="matrix(0.10061728395061728,0,0,0.10061728395061728,0,0)" xlink:href="#bl"/><use transform="matrix(0.10061728395061728,0,0,0.10061728395061728,7.9487654320987655,0)" xlink:href="#aT"/><use transform="matrix(0.10061728395061728,0,0,0.10061728395061728,28.072222222222223,0)" xlink:href="#aH"/></g><g id="J"><use transform="matrix(0.10061728395061728,0,0,0.10061728395061728,0,0)" xlink:href="#aR"/><use transform="matrix(0.10061728395061728,0,0,0.10061728395061728,18.11111111111111,0)" xlink:href="#aJ"/><use transform="matrix(0.10061728395061728,0,0,0.10061728395061728,28.17283950617284,0)" xlink:href="#aG"/><use transform="matrix(0.10061728395061728,0,0,0.10061728395061728,48.29629629629629,0)" xlink:href="#aJ"/><use transform="matrix(0.10061728395061728,0,0,0.10061728395061728,58.358024691358025,0)" xlink:href="#aQ"/><use transform="matrix(0.10061728395061728,0,0,0.10061728395061728,78.48148148148147,0)" xlink:href="#aR"/></g><g id="K"><use transform="matrix(0.10061728395061728,0,0,0.10061728395061728,0,0)" xlink:href="#aB"/><use transform="matrix(0.10061728395061728,0,0,0.10061728395061728,18.11111111111111,0)" xlink:href="#aC"/><use transform="matrix(0.10061728395061728,0,0,0.10061728395061728,38.23456790123457,0)" xlink:href="#aD"/></g><path fill="#7ab648" d="M59-47c-2 24 18 29 38 22v24C64 9 27 4 27-40v-127H5v-23h24l9-43h21v43h35v23H59v120" id="bm"/><g id="L"><use transform="matrix(0.10061728395061728,0,0,0.10061728395061728,0,0)" xlink:href="#aE"/><use transform="matrix(0.10061728395061728,0,0,0.10061728395061728,18.11111111111111,0)" xlink:href="#bm"/><use transform="matrix(0.10061728395061728,0,0,0.10061728395061728,28.17283950617284,0)" xlink:href="#bh"/><use transform="matrix(0.10061728395061728,0,0,0.10061728395061728,48.29629629629629,0)" xlink:href="#bm"/><use transform="matrix(0.10061728395061728,0,0,0.10061728395061728,58.358024691358025,0)" xlink:href="#aw"/><use transform="matrix(0.10061728395061728,0,0,0.10061728395061728,78.48148148148147,0)" xlink:href="#aE"/></g><g id="M"><use transform="matrix(0.10061728395061728,0,0,0.10061728395061728,0,0)" xlink:href="#bm"/><use transform="matrix(0.10061728395061728,0,0,0.10061728395061728,10.061728395061728,0)" xlink:href="#aC"/></g><g id="N"><use transform="matrix(0.10061728395061728,0,0,0.10061728395061728,0,0)" xlink:href="#az"/><use transform="matrix(0.10061728395061728,0,0,0.10061728395061728,20.123456790123456,0)" xlink:href="#aD"/></g><g id="O"><use transform="matrix(0.10061728395061728,0,0,0.10061728395061728,0,0)" xlink:href="#al"/><use transform="matrix(0.10061728395061728,0,0,0.10061728395061728,33.40493827160494,0)" xlink:href="#V"/><use transform="matrix(0.10061728395061728,0,0,0.10061728395061728,53.528395061728396,0)" xlink:href="#ap"/></g><path d="M232-93c-1 65-40 97-104 97C67 4 28-28 28-90v-158h33c8 89-33 224 67 224 102 0 64-133 71-224h33v155" id="bn"/><g id="P"><use transform="matrix(0.10061728395061728,0,0,0.10061728395061728,0,0)" xlink:href="#bn"/><use transform="matrix(0.10061728395061728,0,0,0.10061728395061728,26.059876543209874,0)" xlink:href="#as"/></g><path d="M205 0l-28-72H64L36 0H1l101-248h38L239 0h-34zm-38-99l-47-123c-12 45-31 82-46 123h93" id="bo"/><g id="Q"><use transform="matrix(0.10061728395061728,0,0,0.10061728395061728,0,0)" xlink:href="#bo"/><use transform="matrix(0.10061728395061728,0,0,0.10061728395061728,24.14814814814815,0)" xlink:href="#au"/><use transform="matrix(0.10061728395061728,0,0,0.10061728395061728,48.2962962962963,0)" xlink:href="#as"/><use transform="matrix(0.10061728395061728,0,0,0.10061728395061728,58.358024691358025,0)" xlink:href="#T"/></g></defs></g></svg>